# xmcd
#
# Track frame offsets:
#	182
#	11050
#	27145
#	39492
#	49585
#	61735
#	74300
#	87467
#	102710
#	116882
#	132452
#	148062
#	162502
#
# Disc length: 2285 seconds
#
# Revision: 1
# Processed by: cddbd v1.5.2PL0 Copyright (c) Steve Scherf et al.
# Submitted via: audiograbber 1.83.01
#
DISCID=bd08eb0d
DTITLE=Αθηναική Κομπανία - Στην επόμενη στάση
DYEAR=1983
DGENRE=Other
TTITLE0=Μαλώνουμε μαλώνουμε
TTITLE1=Η ζωή μας τελειώνει
TTITLE2=Οι ντάμες
TTITLE3=Σε βράσιμο ψυχής
TTITLE4=Δε μαθαίνω νέα σου
TTITLE5=Κάν'το σκόπιμα
TTITLE6=Ενα σημάδι του καιρού
TTITLE7=Σαν το τσιγάρο
TTITLE8=Πλάτη με πλάτη
TTITLE9=Πρώτα σ'έλεγαν Μιχάλη
TTITLE10=Παραπονιάρης
TTITLE11=Το συμφέρον
TTITLE12=Κι ας μ'αγάπαγες λιγάκι
EXTD=
EXTT0=
EXTT1=
EXTT2=
EXTT3=
EXTT4=
EXTT5=
EXTT6=
EXTT7=
EXTT8=
EXTT9=
EXTT10=
EXTT11=
EXTT12=
PLAYORDER=
